# Blender v3.3.1 OBJ File: 'level1.blend'
# www.blender.org
mtllib level1_2_img.mtl
o Cube.005
v 5.177131 1.473705 -7.676164
v 5.177131 5.274388 -7.676164
v 5.177131 5.274388 -4.317399
v 5.177131 1.473705 -4.317399
v 5.381450 1.473705 -7.676164
v 5.381450 5.274388 -7.676164
v 5.381450 5.274388 -4.317399
v 5.381450 1.473705 -4.317399
v -5.177131 1.473705 -7.676164
v -5.177131 5.274388 -7.676164
v -5.177131 5.274388 -4.317399
v -5.177131 1.473705 -4.317399
v -5.381450 1.473705 -7.676164
v -5.381450 5.274388 -7.676164
v -5.381450 5.274388 -4.317399
v -5.381450 1.473705 -4.317399
vt 0.001290 0.987375
vt 0.001289 -0.010052
vt 1.001599 -0.010053
vt 1.001599 0.987375
vt 0.001290 0.987375
vt 0.001289 -0.010052
vt 1.001599 -0.010053
vt 1.001599 0.987375
vt 0.001290 0.987375
vt 1.001599 0.987375
vt 1.001599 -0.010053
vt 0.001289 -0.010052
vt 0.001289 -0.010052
vt 0.001290 0.987375
vt 1.001599 -0.010053
vt 1.001599 0.987375
vn -1.0000 0.0000 0.0000
vn 0.0000 0.0000 -1.0000
vn 0.0000 -1.0000 0.0000
vn 0.0000 0.0000 1.0000
vn 0.0000 1.0000 0.0000
vn 1.0000 0.0000 0.0000
usemtl photo
s 1
f 2/1/1 1/2/1 4/3/1 3/4/1
f 2/1/2 6/5/2 5/6/2 1/2/2
f 1/2/3 5/6/3 8/7/3 4/3/3
f 4/3/4 8/7/4 7/8/4 3/4/4
f 3/4/5 7/8/5 6/5/5 2/1/5
f 10/9/6 11/10/6 12/11/6 9/12/6
f 10/9/2 9/12/2 13/13/2 14/14/2
f 9/12/3 12/11/3 16/15/3 13/13/3
f 12/11/4 11/10/4 15/16/4 16/15/4
f 11/10/5 10/9/5 14/14/5 15/16/5
